<!-- Generated by IcoMoon.io -->
<svg version="1.1" xmlns="http://www.w3.org/2000/svg" width="32" height="32" viewBox="0 0 32 32">
<path d="M8.275 1.775l-0.838 0.616c-0.019 0.26-0.050 0.695-0.044 1.212 0.006 0.803 0.144 1.742 0.4 2.154 0.456 0.725 1.269 1.131 2.237 1.556s2.069 0.844 2.875 1.787c0.975 1.15 1.563 2.475 2.031 3.825 0.256-0.213 0.519-0.431 0.756-0.656-0.537-1.412-1.162-2.731-2.112-3.819-0.519-0.575-1.331-0.906-2.219-1.281-0.894-0.381-1.887-0.819-2.488-1.793-0.556-0.884-0.625-2.063-0.619-3.058 0-0.192 0.012-0.369 0.019-0.543zM23 2.391c-0.212 0.067-0.494 0.167-0.875 0.33-0.594 0.256-1.275 0.654-1.494 0.928-0.625 0.794-0.813 1.866-0.956 3.076-0.156 1.206-0.25 2.537-0.956 3.719-2.087 3.494-6.006 5.081-8.125 7.987-1.356 1.856-3.106 5.938-3.544 6.981l1.381 0.875c0.162-0.438 0.531-1.4 1.006-2.519 0.656-1.519 1.475-3.3 2.3-4.45 1.169-1.656 2.762-2.856 4.262-4.044 1.506-1.188 2.913-2.356 3.819-3.894h0.012c0.5-0.856 0.613-1.963 0.75-3.144 0.144-1.181 0.3-2.457 1.125-3.521 0.531-0.692 1.406-1.156 2.175-1.518 0.063-0.033 0.137-0.064 0.2-0.094zM6.269 3.259l-0.817 0.609c-0.010 0.251-0.016 0.598 0 0.979 0.031 0.759 0.187 1.652 0.43 2.034 0.506 0.806 1.394 1.262 2.438 1.738 1.050 0.475 2.231 0.95 3.088 1.963 0.925 1.088 1.5 2.331 1.969 3.606 0.213-0.169 0.425-0.338 0.625-0.506-0.469-1.431-1.031-2.763-1.963-3.856-0.563-0.662-1.475-1.050-2.456-1.481-0.988-0.431-2.075-0.925-2.737-1.994-0.5-0.803-0.563-1.853-0.575-2.737v-0.354zM27.188 5.141c-0.25 0.071-0.594 0.178-0.969 0.318-0.731 0.274-1.544 0.715-1.813 1.059-0.587 0.737-0.7 1.744-0.762 2.9s-0.075 2.45-0.731 3.606c-0.988 1.725-2.519 2.906-4.006 4.025-1.494 1.125-2.963 2.194-3.912 3.613-0.75 1.113-1.581 3.106-2.181 4.794-0.544 1.544-0.919 2.781-0.981 2.994l0.825 0.525c0.175-0.606 0.412-1.462 0.725-2.413 0.588-1.819 1.369-3.944 2.281-5.319 1.138-1.719 2.813-2.875 4.375-4.012s3.031-2.25 3.906-3.794c0.431-0.744 0.462-1.75 0.5-2.844 0.044-1.088 0.119-2.3 0.906-3.287 0.606-0.75 1.594-1.146 2.45-1.439 0.113-0.038 0.219-0.073 0.331-0.106zM2.6 5.984l-0.941 0.697c0 0.213 0.006 0.506 0.039 0.894 0.054 0.637 0.214 1.387 0.404 1.688v0.006c0.542 0.869 1.476 1.425 2.542 1.994s2.25 1.144 3.119 2.2c0.994 1.213 1.644 2.569 2.181 3.956 0.275-0.35 0.581-0.681 0.887-1-0.5-1.313-1.063-2.55-1.925-3.594-0.631-0.769-1.631-1.275-2.666-1.819-1.043-0.55-2.158-1.156-2.882-2.275-0.469-0.725-0.631-1.688-0.731-2.51-0.010-0.081-0.018-0.159-0.026-0.237zM29.381 6.588c-0.25 0.056-0.694 0.169-1.219 0.344-0.769 0.269-1.644 0.706-1.938 1.075-0.519 0.662-0.613 1.569-0.656 2.638-0.038 1.069-0.031 2.269-0.644 3.356-1.031 1.794-2.656 3-4.231 4.144-1.569 1.144-3.1 2.238-4.094 3.725-0.762 1.163-1.569 3.262-2.144 5.044-0.369 1.119-0.65 2.113-0.806 2.694l0.969 0.619c0.131-0.544 0.325-1.288 0.6-2.2 0.475-1.631 1.131-3.544 1.913-4.8 1.169-1.887 2.931-3.2 4.594-4.494 1.656-1.294 3.219-2.556 4.15-4.262 0.35-0.662 0.363-1.556 0.394-2.537s0.081-2.081 0.8-2.987c0.669-0.825 1.781-1.263 2.75-1.575 0.188-0.063 0.356-0.112 0.525-0.156zM20.519 21.144c-0.25 0.2-0.481 0.413-0.7 0.625 0.575 0.519 1.2 1.031 1.775 1.494 0.944 0.75 1.75 1.344 2.238 1.694l0.8-0.619c-0.456-0.319-1.081-0.762-1.844-1.337-0.738-0.563-1.55-1.206-2.269-1.856zM19.031 22.575c-0.169 0.194-0.337 0.387-0.494 0.587 0.406 0.369 0.825 0.731 1.219 1.063 1.244 1.050 2.262 1.831 2.45 1.969l0.688-0.525c-0.512-0.369-1.219-0.9-2-1.531-0.606-0.481-1.25-1.012-1.863-1.563zM16.894 26.5c-0.169 0.475-0.331 0.962-0.481 1.431 0.688 0.681 1.275 1.231 1.563 1.5l1.156-0.887c-0.375-0.325-1.256-1.106-2.238-2.044z"></path>
</svg>
