<!-- Generated by IcoMoon.io -->
<svg version="1.1" xmlns="http://www.w3.org/2000/svg" width="32" height="32" viewBox="0 0 32 32">
<path d="M1.125 1.125v5.138c1.004 0.669 1.975 1.55 5.281 0.319 1.15 2.138 2.412 2 3.119 1.675 0.531 1.019 1.75 1.106 2.919 0.15h2.988c-0.55-0.506-1.369-1.344-1.45-1.969 0.519 1.056 2.45 1.463 3.469 1.969h3.2c1.394-0.875 0.181-1.85-0.369-2.481-0.944-1.083-2.594-1.255-4.125-1.229 0.669-1.024-0.1-1.718-0.706-2.195-0.725-0.574-1.7-0.794-2.762-0.219 0.162-0.468 0.113-0.843-0.056-1.157zM12.438 9.438v4h-2.819l-1.825 4.563h-2.794l2.494 2.494c-1.705 0.094-3.599 0.381-5.648 0.962l0.309 1.087c3.367-0.962 6.246-1.087 8.546-0.906 0.162 0.012 0.113 0.019 0.162 0.012 2.3 0.194 4.006 0.681 5.019 0.9 2.438 0.531 6.844 1.656 13.331-1.031l-0.425-1.038c-0.381 0.156-0.762 0.306-1.15 0.444-0.988-0.288-2.006-0.506-3.044-0.669l3.406-4.256h-4.538l-1.087-2.563h-1.813v-4h-3.125v4h-1.875v-4zM13.563 10.563h0.875v2.875h-0.875zM18.563 10.563h0.875v2.875h-0.875zM10.381 14.563h11.244l0.613 1.438h-3.238l-1 2h-8.994zM19.206 20.994c2.15 0 4.294 0.163 6.325 0.575-4.4 1.106-7.381 0.325-9.413-0.119-0.3-0.063-0.694-0.163-1.162-0.269 1.4-0.119 2.825-0.188 4.25-0.188zM10.794 23.438h-0.144c-2.081 0.069-5.786 1.019-5.786 1.019l0.272 1.087s3.789-0.925 5.545-0.981c1.231-0.038 4.031 0.45 4.031 0.45l0.2-1.106s-2.55-0.488-4.119-0.469zM19.556 25.438c-1.8-0.006-4.069 0.494-5.944 0.994-1.938 0.512-3.444 1.038-3.444 1.038l0.369 1.063s1.469-0.512 3.362-1.012c1.894-0.5 4.219-0.988 5.806-0.956 2.063 0.038 3.994 0.606 5.813 1.181s3.519 1.169 5.156 1.169v-1.125c-1.356 0-2.981-0.538-4.819-1.119-1.831-0.575-3.875-1.188-6.125-1.231z"></path>
</svg>
