<!-- Generated by IcoMoon.io -->
<svg version="1.1" xmlns="http://www.w3.org/2000/svg" width="32" height="32" viewBox="0 0 32 32">
<path d="M3.611 1.446c-0.095 1.818-0.137 3.475-0.142 5.020 0.41-0.17 0.856-0.271 1.327-0.271 1.953 0 3.555 1.603 3.555 3.555s-1.611 3.519-3.555 3.519c-0.379 0-0.747-0.063-1.093-0.173 0.791 7.705 3.051 10.426 5.526 12.023 1.292 0.834 2.687 1.356 4.017 2.078 1.090 0.591 2.136 1.345 2.964 2.508 0.827-1.162 1.87-1.916 2.958-2.508 1.327-0.722 2.716-1.244 4.004-2.078 2.466-1.596 4.718-4.317 5.508-12.020-0.332 0.107-0.686 0.17-1.057 0.17-1.944 0-3.555-1.566-3.555-3.519s1.602-3.556 3.555-3.556c0.477 0 0.922 0.106 1.327 0.282-0.004-1.547-0.047-3.208-0.142-5.031-3.718 0.813-8.174 1.204-12.594 1.243h-0.010c-4.42-0.039-8.876-0.43-12.594-1.243zM22.619 3.903l-1.695 5.824-1.122-0.326 0.719-2.471-5.32 3.978-0.699-0.936 8.116-6.069zM9.782 3.967l5.108 3.72-0.688 0.944-2.146-1.563 2.174 6.47-1.107 0.372-3.342-9.943zM18.562 10.195l8.086 6.122-6.141-0.030 0.006-1.168 2.634 0.013-5.291-4.005 0.705-0.931zM10.915 12.552l0.677 0.952-2.263 1.61 6.556-0.011 0.002 1.168-10.224 0.016 5.252-3.735zM18.277 13.864l1.113 0.355-3.087 9.688-1.953-6.029 1.111-0.36 0.833 2.57 1.983-6.224z"></path>
</svg>
