<!-- Generated by IcoMoon.io -->
<svg version="1.1" xmlns="http://www.w3.org/2000/svg" width="32" height="32" viewBox="0 0 32 32">
<path d="M15.956 1.196c-5.081-0.010-10.022 2.623-12.748 7.344-4.057 7.027-1.657 15.996 5.37 20.053s15.994 1.651 20.051-5.376c4.057-7.027 1.655-15.992-5.372-20.049-2.306-1.331-4.82-1.967-7.301-1.972zM20.472 7.724c1.493 0.006 2.974 0.378 4.32 1.155 4.535 2.617 5.849 8.852 2.927 13.909s-8.984 7.042-13.519 4.425c-4.535-2.617-5.846-8.856-2.925-13.914 2.054-3.556 5.66-5.591 9.196-5.576zM24.838 10.373c0.857 1.395 1.19 3.225 0.967 5.175-0.419-0.759-1.028-1.405-1.81-1.855-2.504-1.442-5.858-0.351-7.471 2.435s-0.887 6.234 1.617 7.675c0.657 0.379 1.374 0.582 2.102 0.626-2.278 1.411-4.815 1.716-6.812 0.564-0.123-0.071-0.243-0.148-0.359-0.228 0.501 0.534 1.084 1.001 1.744 1.382 4.017 2.318 9.356 0.566 11.944-3.914 2.44-4.224 1.553-9.345-1.922-11.86zM21.519 14.251c0.642 0.008 1.279 0.171 1.861 0.506 1.986 1.143 2.555 3.843 1.275 6.053s-3.912 3.075-5.898 1.931c-1.722-0.992-2.375-3.158-1.684-5.157 0.266 1.061 1.233 1.855 2.372 1.855 1.343 0 2.443-1.102 2.443-2.444 0-1.209-0.892-2.22-2.050-2.409 0.5-0.208 1.027-0.322 1.552-0.333 0.043-0.001 0.086-0.001 0.128-0z"></path>
</svg>
