<!-- Generated by IcoMoon.io -->
<svg version="1.1" xmlns="http://www.w3.org/2000/svg" width="32" height="32" viewBox="0 0 32 32">
<path d="M23.794 1.837l-15.306 0.041c-1.138 0.039-1.569 1.011-1.563 2.551l-0.2 12.221-1.566 0.225 0.751-1.881-1.045-0.412-0.75 1.881-1.257-1.594-0.884 0.7 1.252 1.587-2.001 0.288 0.16 1.113 2.010-0.288-0.754 1.887 1.045 0.413 0.75-1.881 1.256 1.594 0.882-0.7-1.255-1.594 1.386-0.2-0.169 10.5c0.106 1.494 0.375 2.087 1.125 2.169l15.85 0.225c1.363 0.169 1.8-0.781 1.844-2.194l0.238-24.092c0.019-1.217 0.075-2.46-1.8-2.558zM22.269 3.136c1.644 0.084 1.994 2.466 1.975 3.571-0.35 6.512-0.244 13.094-0.313 19.644-0.038 1.275-1.219 2.769-2.419 2.794-3.863 0.081-7.838 0.175-11.869-0.050-0.669-0.038-1.919-0.725-1.9-2.075l0.338-21.545c-0.006-1.389 1.475-2.131 2.469-2.105 4.225 0.111 8.237 0.096 11.719-0.233zM28.419 3.598l-1.063 0.368 0.337 0.969-1.006-0.194-0.212 1.106 1.006 0.193-0.669 0.772 0.85 0.744 0.669-0.775 0.337 0.969 1.063-0.369-0.337-0.969 1.006 0.194 0.212-1.109-1.006-0.194 0.669-0.775-0.85-0.737-0.669 0.774-0.337-0.968zM12.544 4.274c-0.988 0.008-2.6 0.669-3.050 1.876-1.012 2.706 0.319 8.3 1.162 9.031 0.25 0.219-0.194-6.306 2.481-9.967 0.469-0.644 0.081-0.946-0.594-0.941zM16.012 9.544c-1.075 0-2.031 1.15-2.031 2.656 0 0.775 0.256 1.463 0.644 1.938l0.387 0.488-0.619 0.094c-0.588 0.094-0.988 0.375-1.319 0.819s-0.575 1.056-0.725 1.775c-0.294 1.306-0.3 2.913-0.3 4.313h1.619l0.394 6.125h3.731l0.45-6.125h1.706c-0.006-1.381-0.075-2.969-0.394-4.269-0.175-0.706-0.419-1.325-0.75-1.775-0.319-0.444-0.712-0.725-1.244-0.825l-0.606-0.113 0.4-0.469c0.4-0.488 0.675-1.181 0.675-1.975 0-1.419-0.856-2.525-1.819-2.656h-0.2zM22.531 21.369c-0.113 0.056-1.531 4.919-2.2 6.025-0.431 0.712 1.625 0.238 2.169-0.394 0.712-0.844 0.4-5.144 0.038-5.631h-0.006zM28.506 23.381l-1.113 0.188 0.156 0.95-0.844-0.569-0.625 0.938 1.194 0.806-0.8 0.488 0.587 0.962 0.837-0.512 0.238 1.419 1.113-0.188-0.156-0.95 0.844 0.569 0.625-0.938-1.194-0.806 0.8-0.488-0.587-0.962-0.837 0.512-0.238-1.419z"></path>
</svg>
