<!-- Generated by IcoMoon.io -->
<svg version="1.1" xmlns="http://www.w3.org/2000/svg" width="32" height="32" viewBox="0 0 32 32">
<path d="M8.666 3.096l-0.002 7.176 2.314-1.338-0.002-0.74-0.004-1.014 8.893 5.127-0.002-3.158-0.057 0.033-0.293 0.17-0.291-0.17-3.174-1.832-0.006 0.004-7.377-4.258zM23.422 3.096l-6.207 3.582 2.297 1.324 1.52-0.881v1.014l0.004 9.211 2.689-1.555-0.031-0.020-0.267-0.172v-0.32l-0.002-3.664v-3.795l-0.002-2.861v-1.863zM12.146 9.203v0.404l-0.293 0.17-10.566 6.098 6.213 3.588 0.008-2.709-1.57-0.871 8.887-5.135-2.678-1.545zM15.992 11.422l-3.258 1.883 3.184 1.963 3.258-2.010-3.184-1.836zM24.592 12.291l0.002 2.67 1.373 0.883-0.828 0.481-8.076 4.664 2.801 1.615v-0.404l0.293-0.168 3.267-1.887v-0.010l7.377-4.26-6.209-3.584zM19.865 14.205l-2.834 1.748 2.836 1.748-0.002-3.496zM11.029 14.289l-2.719 1.572 0.066 0.037 0.303 0.168-0.002 0.346-0.014 4.459 0.002 7.783 6.193-3.574-2.309-1.332-0.641 0.371-0.877 0.51v-1.014l-0.004-9.326zM12.197 14.344l0.002 3.217 2.607-1.607-2.609-1.609zM15.918 16.639l-3.090 1.906 3.068 1.769 3.090-1.783-3.068-1.892zM12.199 19.531l0.002 3.068 0.057-0.033 0.291-0.168 0.293 0.168 3.185 1.838 0.016-0.008 7.379 4.258 0.002-7.162-2.392 1.383 0.002 0.74 0.004 1.014-0.879-0.508-7.959-4.59z"></path>
</svg>
