<!-- Generated by IcoMoon.io -->
<svg version="1.1" xmlns="http://www.w3.org/2000/svg" width="32" height="32" viewBox="0 0 32 32">
<path d="M3.632 1.26c1.283 1.187 2.547 2.411 3.78 3.662-0.005 0.004-0.011 0.008-0.016 0.012 0.841 0.851 1.667 1.714 2.476 2.585l0.013-0.009c0.269 0.29 0.536 0.581 0.801 0.873l-0.012 0.008c0.812 0.893 1.604 1.794 2.374 2.699l0.007-0.007c1.691 1.995 3.271 4.009 4.702 6.005 0.13 0.181 0.259 0.363 0.387 0.543l0.045 0.064c0.109 0.155 0.218 0.311 0.325 0.466 0.029 0.042 0.058 0.084 0.087 0.125 0.089 0.13 0.178 0.259 0.266 0.389 0.043 0.063 0.086 0.125 0.128 0.188 0.088 0.13 0.174 0.259 0.26 0.389 0.034 0.050 0.068 0.101 0.102 0.152 0-0 0 0 0 0l-0-0c-0.186-0.123-0.372-0.247-0.558-0.373-0.036-0.025-0.073-0.050-0.109-0.074-0.153-0.104-0.306-0.208-0.46-0.314-0.038-0.026-0.076-0.052-0.114-0.079-0.149-0.103-0.298-0.207-0.448-0.312l-0.128-0.090c-0.157-0.111-0.314-0.223-0.472-0.335l-0.064-0.046c-0.184-0.132-0.368-0.265-0.552-0.399-1.805-1.317-3.62-2.752-5.418-4.277l0.003-0.004c-0.901-0.766-1.798-1.554-2.687-2.362l-0.004 0.006c-0.292-0.265-0.584-0.533-0.874-0.802l0.005-0.007c-0.873-0.811-1.737-1.639-2.589-2.481l-0.006 0.008c-1.184-1.17-2.343-2.367-3.469-3.582 0.931 1.448 1.93 2.881 2.988 4.292-2.842 4.549-2.286 10.616 1.669 14.571 3.613 3.613 8.988 4.389 13.358 2.329-1.051-0.846-2.069-1.742-3.046-2.682-2.71 0.669-5.695-0.053-7.808-2.167-2.432-2.432-3.021-6.018-1.77-9.010 0.284 0.342 0.571 0.682 0.862 1.021-0.786 2.441-0.208 5.222 1.734 7.164 1.635 1.635 3.864 2.303 5.985 2.004-1.935-1.977-3.692-4.125-5.218-6.386 6.071 6.45 13.236 12 20.479 15.639-3.621-7.183-9.143-14.322-15.555-20.385 2.232 1.5 4.352 3.232 6.306 5.138 0.305-2.127-0.362-4.365-2.002-6.005-1.383-1.383-3.19-2.074-4.998-2.074-0.737 0-1.475 0.115-2.183 0.345-0.337-0.29-0.677-0.577-1.018-0.861 1.021-0.429 2.111-0.644 3.201-0.644 2.109 0 4.218 0.803 5.824 2.409 2.117 2.117 2.838 5.11 2.163 7.824 0.939 0.973 1.835 1.988 2.681 3.035 2.059-4.371 1.284-9.746-2.329-13.359-2.301-2.301-5.317-3.452-8.333-3.452-2.169 0-4.338 0.595-6.241 1.785-1.489-1.12-3.003-2.174-4.532-3.15z"></path>
</svg>
